<?xml version="1.0" encoding="UTF-8" standalone="no"?>
<svg
   xmlns:dc="http://purl.org/dc/elements/1.1/"
   xmlns:cc="http://creativecommons.org/ns#"
   xmlns:rdf="http://www.w3.org/1999/02/22-rdf-syntax-ns#"
   xmlns:svg="http://www.w3.org/2000/svg"
   xmlns="http://www.w3.org/2000/svg"
   xmlns:sodipodi="http://sodipodi.sourceforge.net/DTD/sodipodi-0.dtd"
   xmlns:inkscape="http://www.inkscape.org/namespaces/inkscape"
   inkscape:version="1.0.1 (3bc2e813f5, 2020-09-07)"
   sodipodi:docname="Butchercam.svg"
   id="svg85"
   preserveAspectRatio="xMidYMid meet"
   viewBox="0 0 512.000000 512.000000"
   height="512.000000pt"
   width="512.000000pt"
   version="1.0">
  <metadata
     id="metadata91">
    <rdf:RDF>
      <cc:Work
         rdf:about="">
        <dc:format>image/svg+xml</dc:format>
        <dc:type
           rdf:resource="http://purl.org/dc/dcmitype/StillImage" />
        <dc:title />
      </cc:Work>
    </rdf:RDF>
  </metadata>
  <defs
     id="defs89" />
  <sodipodi:namedview
     inkscape:current-layer="svg85"
     inkscape:window-maximized="1"
     inkscape:window-y="-8"
     inkscape:window-x="-8"
     inkscape:cy="287.428"
     inkscape:cx="301.47648"
     inkscape:zoom="2.4902344"
     showgrid="true"
     id="namedview87"
     inkscape:window-height="1017"
     inkscape:window-width="1920"
     inkscape:pageshadow="2"
     inkscape:pageopacity="0"
     guidetolerance="10"
     gridtolerance="10"
     objecttolerance="10"
     borderopacity="1"
     bordercolor="#666666"
     pagecolor="#ffffff"
     inkscape:document-rotation="0">
    <inkscape:grid
       originy="2.2499999"
       originx="-2.2499999"
       id="grid918"
       type="xygrid" />
  </sodipodi:namedview>
  <g
     id="g83"
     stroke="none"
     fill="#000000"
     transform="matrix(0.1,0,0,-0.1,0,512)">
    <path
       sodipodi:nodetypes="cccccsccccscscscccscccccccsccccsccsccsccc"
       id="path69"
       d="m 2162,4293 c -20.0172,-1.0248 -21.9439,0.4384 -36.6118,-12.3529 C 2096.8588,4258.3412 2067,4241 1953,4118 c -58,-62 -144,-152 -191,-200 l -85,-88 h -313 c -265,0 -330.382,2.3241 -364.38199,-10.6759 -23,-9 -39.66205,-12.4814 -54.8288,-24.338 C 918.06,3774.3176 901.63325,3762.5379 890.0856,3742.0371 874.95596,3723.1504 855,3683 836,3627 c -14,-43 -16,-159 -16,-1126 0,-1233 -7,-1135 90,-1233 96,-96 -48,-88 1651,-88 1699,0 1551,-8 1650,90 96,95 89,-2 89,1231 0,967 -2,1083 -16,1126 -15.9207,71.597 -49.619,109.2256 -64,123.0471 -23.9113,23.7436 -54.5882,43.9966 -90.4118,59.5647 C 4099.8471,3820.7412 4061,3830 3750,3830 h -318 l -128,138 c -218,234 -298,309 -341,321 -37,11 -749,14 -801,4 z m 1801,-697 c 104,-43 140,-186 70,-275 -57,-70 -139,-89 -217,-51 -63,31 -91,79 -91,160 0,54 5,73 25,103 45,67 138,95 213,63 z M 2795,3463 c 322,-89 562,-325 662,-650 24,-80 27,-102 27,-253 0,-151 -3,-173 -27,-253 -98,-318 -326,-546 -644,-644 -80,-24 -102,-27 -253,-27 -151,0 -173,3 -253,27 -319,98 -546,325 -644,644 -24,80 -27,102 -27,253 0,151 3,173 27,253 106,345 370,589 717,663 93,19 323,12 415,-13 z" />
  </g>
  <ellipse
     ry="73.321548"
     rx="73.841248"
     cy="256.28735"
     cx="255.59648"
     id="path937"
     style="fill:none;stroke:#000000;stroke-width:12.2717;stroke-miterlimit:4;stroke-dasharray:none;stroke-opacity:1" />
</svg>
