<?xml version="1.0" encoding="UTF-8" standalone="no"?>
<svg
   xmlns:dc="http://purl.org/dc/elements/1.1/"
   xmlns:cc="http://creativecommons.org/ns#"
   xmlns:rdf="http://www.w3.org/1999/02/22-rdf-syntax-ns#"
   xmlns:svg="http://www.w3.org/2000/svg"
   xmlns="http://www.w3.org/2000/svg"
   xmlns:sodipodi="http://sodipodi.sourceforge.net/DTD/sodipodi-0.dtd"
   xmlns:inkscape="http://www.inkscape.org/namespaces/inkscape"
   inkscape:version="1.0.1 (3bc2e813f5, 2020-09-07)"
   sodipodi:docname="Phoenixmod.svg"
   id="svg85"
   preserveAspectRatio="xMidYMid meet"
   viewBox="0 0 512.000000 512.000000"
   height="512.000000pt"
   width="512.000000pt"
   version="1.0">
  <metadata
     id="metadata91">
    <rdf:RDF>
      <cc:Work
         rdf:about="">
        <dc:format>image/svg+xml</dc:format>
        <dc:type
           rdf:resource="http://purl.org/dc/dcmitype/StillImage" />
        <dc:title />
      </cc:Work>
    </rdf:RDF>
  </metadata>
  <defs
     id="defs89" />
  <sodipodi:namedview
     inkscape:current-layer="svg85"
     inkscape:window-maximized="1"
     inkscape:window-y="-8"
     inkscape:window-x="-8"
     inkscape:cy="328.33634"
     inkscape:cx="573.94553"
     inkscape:zoom="0.88043082"
     showgrid="true"
     id="namedview87"
     inkscape:window-height="1017"
     inkscape:window-width="1920"
     inkscape:pageshadow="2"
     inkscape:pageopacity="0"
     guidetolerance="10"
     gridtolerance="10"
     objecttolerance="10"
     borderopacity="1"
     bordercolor="#666666"
     pagecolor="#ffffff"
     inkscape:document-rotation="0">
    <inkscape:grid
       originy="2.2499999"
       originx="-2.2499999"
       id="grid918"
       type="xygrid" />
  </sodipodi:namedview>
  <g
     transform="matrix(0.02689909,0,0,-0.02689909,182.18248,351.63773)"
     fill="#000000"
     stroke="none"
     id="g4">
    <g
       id="g29">
      <g
         id="g83"
         stroke="none"
         fill="#000000"
         transform="matrix(3.717598,0,0,3.717598,-6772.812,-5961.6244)">
        <path
           sodipodi:nodetypes="cccccsccccscscscccscccccccsccccsccsccsccc"
           id="path69"
           d="m 2162,4293 c -20.0172,-1.0248 -21.9439,0.4384 -36.6118,-12.3529 C 2096.8588,4258.3412 2067,4241 1953,4118 c -58,-62 -144,-152 -191,-200 l -85,-88 h -313 c -265,0 -330.382,2.3241 -364.38199,-10.6759 -23,-9 -39.66205,-12.4814 -54.8288,-24.338 C 918.06,3774.3176 901.63325,3762.5379 890.0856,3742.0371 874.95596,3723.1504 855,3683 836,3627 c -14,-43 -16,-159 -16,-1126 0,-1233 -7,-1135 90,-1233 96,-96 -48,-88 1651,-88 1699,0 1551,-8 1650,90 96,95 89,-2 89,1231 0,967 -2,1083 -16,1126 -15.9207,71.597 -49.619,109.2256 -64,123.0471 -23.9113,23.7436 -54.5882,43.9966 -90.4118,59.5647 C 4099.8471,3820.7412 4061,3830 3750,3830 h -318 l -128,138 c -218,234 -298,309 -341,321 -37,11 -749,14 -801,4 z m 1801,-697 c 104,-43 140,-186 70,-275 -57,-70 -139,-89 -217,-51 -63,31 -91,79 -91,160 0,54 5,73 25,103 45,67 138,95 213,63 z M 2795,3463 c 322,-89 562,-325 662,-650 24,-80 27,-102 27,-253 0,-151 -3,-173 -27,-253 -98,-318 -326,-546 -644,-644 -80,-24 -102,-27 -253,-27 -151,0 -173,3 -253,27 -319,98 -546,325 -644,644 -24,80 -27,102 -27,253 0,151 3,173 27,253 106,345 370,589 717,663 93,19 323,12 415,-13 z" />
      </g>
      <path
         d="m 3531,6862 c -32,-233 -41,-308 -51,-438 -18,-254 -8,-458 32,-623 28,-119 44,-163 91,-256 25,-50 137,-219 149,-223 4,-2 8,-10 8,-18 0,-8 4,-14 9,-14 4,0 21,-20 37,-45 15,-25 32,-45 36,-45 4,0 8,-5 8,-10 0,-9 35,-65 50,-80 5,-5 49,-85 60,-110 27,-59 40,-91 53,-130 43,-129 69,-300 68,-440 -2,-122 -43,-370 -63,-370 -4,0 -8,-5 -8,-11 0,-16 -42,-101 -57,-117 -7,-7 -13,-16 -13,-20 0,-15 -67,-81 -118,-116 -87,-61 -186,-89 -334,-94 -136,-4 -200,8 -263,51 -141,97 -220,325 -168,488 44,140 123,209 238,209 63,0 135,-27 135,-51 0,-5 7,-9 15,-9 11,0 13,13 9,68 -9,132 -48,214 -135,284 -107,84 -199,100 -559,97 -319,-3 -318,-3 -420,75 -24,19 -48,32 -52,30 -16,-10 -20,-98 -7,-153 23,-101 90,-183 192,-234 80,-41 81,-43 67,-129 -20,-123 -60,-277 -88,-336 -40,-83 -72,-139 -97,-171 -112,-144 -230,-195 -450,-195 -109,1 -142,4 -202,24 -79.606,28.0191 -163.6359,83.6204 -209,143 -13,17 -27,37 -31,42 -21,28 -67,136 -83,195 -48,182 -34,561 26,697 16.3642,64.9852 46.2309,126.8436 73,183 31.0121,79.1356 84.6628,142.5598 125.8245,215.4327 126.3684,190.8112 261.4146,374.5886 313.1755,569.5673 6,28 16,75 23,105 6,30 14,140 17,244 4,189 -7,348 -44,621 -23,167 -24,175 -32,175 -4,0 -15,-21 -26,-48 -21,-56 -42,-105 -62,-149 -16,-36 -37,-85 -52,-123 -87.1898,-166.0956 -160.1627,-353.3429 -257,-509 -67.5339,-100.3259 -132.6835,-212.3149 -202,-296 -52.5731,-75.3926 -114.1216,-146.2538 -155,-197 -14,-18 -44,-53 -66,-76 l -41,-44 c -15.626,49.0843 -21.56884,105.8805 -35,150 -77,259 -106,385 -106,463 0,55 28,192 45,219 3,5 1,11 -5,15 -5,3 -26,-10 -45,-30 -20,-19 -38,-35 -40,-35 -71.63819,-59.8056 -133.04986,-152.2162 -172,-215 -7,-11 -15,-27 -19,-35 -3,-8 -12,-28 -19,-45 -33.35189,-53.153 -42.94236,-120.3276 -59,-173 -38,-128 -64,-297 -77,-507 -11,-165 -5,-436 12,-515 5,-25 13,-67 18,-95 12,-61 85,-283 110,-333 62,-123 47,-130 -38,-17 -50.68679,50.4159 -77.93382,109.0555 -121,165 -41.6375,58.4719 -123,244 -139,283 -51,128 -110,389 -112,493 v 49 l -14,-30 c -24,-55 -39,-198 -43,-430 -4,-272 11,-407 75,-650 18,-70 79,-257 91,-282 5,-10 16,-34 25,-53 26,-60 87,-182 117,-237 34,-60 165,-255 201,-297 135,-162 248,-276 322,-326 40,-27 60,-58 30,-45 -10,4 -36,12 -58,17 -22,6 -54,16 -72,24 -49.98476,13.3383 -95.29819,36.1668 -138,56 -22.19712,13.1335 -48.80831,25.5549 -68,38 -89.8982,47.9177 -173.67157,116.943 -242,185 -46,47 -86,81 -90,76 8.35018,-27.6462 19.13242,-62.7744 29,-89 8,-15 29,-63 47,-107 18,-44 46,-102 61,-128 15,-26 28,-50 28,-52 0,-20 188,-280 260,-358 67,-73 110,-117 115,-117 3,0 22,-17 43,-38 114,-116 388,-290 577,-368 99,-40 161,-61 275,-89 143,-36 292,-77 298,-81 2,-1 -12,-31 -31,-66 -39,-72 -89,-214 -106,-304 -14,-77 -14,-221 0,-298 20,-105 65,-242 98,-297 51.8664,-85.65976 118.6035,-181.58059 188,-233 1,5 9,63 17,129 8,66 22,143 30,170 28,92 41,125 48,125 4,0 10,-17 13,-37 22,-149 108,-480 141,-545 13.1759,-51.72361 35.4881,-98.7713 53,-143 39,-101 134,-304 174,-369 l 24,-38 78,158 c 43,88 84,173 91,189 57.0633,140.96741 107.6559,287.24259 148,435 10,36 24,88 32,116 8,28 14,62 14,75 0,13 8,55 18,93 16,62 19,66 28,45 37,-82 64,-202 73,-324 l 6,-90 45,45 c 117,117 166,206 231,420 16.1215,177.1051 32.3462,374.7792 -26,534 -23.7639,54.2855 -43.8039,110.4362 -75,161 -32,51 -27,55 55,55 140,0 454,78 580,144 29.8542,9.9568 61.1738,24.1543 84.4741,38.7394 27.11,12.4571 53.0672,30.0477 75.5259,42.2606 195.1034,121.3096 392.629,283.3183 521,440 21,28 41,52 44,55 40.7867,65.3725 92.7695,131.3197 125,195 11,22 22,42 25,45 3,3 15,28 28,55 13,28 27,58 33,67 27,50 109,307 109,341 0,15 -7,11 -30,-22 -81,-112 -207,-198 -357,-245 -50,-15 -153,-22 -153,-10 0,5 20,27 125,137 60.6483,62.9492 110.0641,139.2177 162,202 35.1499,41.1863 59.9899,88.6109 88,132 64.3877,108.9829 127.1582,229.9177 173,333 37,84 80,215 87,265 23.1529,69.7065 35.8847,142.5341 51,212 9,26 18,73 20,103 2,30 8,89 15,130 15,101 5,512 -16,595 -8,33 -15,76 -15,95 -1,63 -20,8 -30,-87 -15,-139 -42,-256 -90,-388 -12,-33 -24,-72 -27,-87 -47.131,-86.091 -81.9968,-182.4525 -133,-268 -33.5113,-60.3183 -77.2549,-104.4394 -110,-164 0,-3 -13,-19 -30,-36 -16,-17 -30,-29 -30,-28 0,2 12,35 26,73 14,39 30,84 34,100 5,17 17,55 25,85 92,308 108,627 54,1035 -18,131 -26,181 -37,217 -6,18 -18,60 -28,93 -45.9404,135.453 -188.6084,458.7282 -345,495 -8,0 0,-34 21,-85 8,-18 12,-78 12,-155 -1,-104 -5,-140 -27,-215 -14,-49 -30,-109 -35,-133 -5,-24 -12,-48 -16,-54 -8,-12 -34,-120 -41,-170 -5,-37 -29.7228,-49.4226 -43.0187,-21.5407 -27.882,37.1629 -43.9234,62.4576 -64.9813,88.5407 -59.2558,71.5154 -115.8215,139.3178 -164,205 -72.0499,85.9937 -134.6791,190.6034 -182,265 -47,73 -99,168 -170,315 -61.6918,115.9123 -116.1121,243.8139 -165,361 -50,120 -51,121 -64,157 -7,18 -16,34 -20,37 -4,2 -12,-35 -19,-83 z M 2958,4680 c 9,-5 28,-15 42,-20 14,-6 35,-17 48,-24 22,-13 21,-14 -39,-38 -34,-14 -70,-23 -80,-21 -27,7 -96,70 -102,93 -5,18 0,20 54,20 33,0 67,-4 77,-10 z"
         id="path2"
         sodipodi:nodetypes="cccccsscssscscsscsccccsssccccccccccccccccccccccscccccccccscccccccccccccccccccccccccccccccccssscscccccccccscsccccccccssccccscccsccccccsccsccsccccccsccccsccccsccccccccccssccccccccccccccccsc" />
    </g>
  </g>
</svg>
