<?xml version="1.0" encoding="UTF-8" standalone="no"?>
<svg
   xmlns:dc="http://purl.org/dc/elements/1.1/"
   xmlns:cc="http://creativecommons.org/ns#"
   xmlns:rdf="http://www.w3.org/1999/02/22-rdf-syntax-ns#"
   xmlns:svg="http://www.w3.org/2000/svg"
   xmlns="http://www.w3.org/2000/svg"
   xmlns:sodipodi="http://sodipodi.sourceforge.net/DTD/sodipodi-0.dtd"
   xmlns:inkscape="http://www.inkscape.org/namespaces/inkscape"
   version="1.0"
   width="510.67859pt"
   height="689.7077pt"
   viewBox="0 0 510.67859 689.7077"
   preserveAspectRatio="xMidYMid meet"
   id="svg6"
   sodipodi:docname="Phoenix.svg"
   inkscape:version="1.0.1 (3bc2e813f5, 2020-09-07)">
  <metadata
     id="metadata12">
    <rdf:RDF>
      <cc:Work
         rdf:about="">
        <dc:format>image/svg+xml</dc:format>
        <dc:type
           rdf:resource="http://purl.org/dc/dcmitype/StillImage" />
      </cc:Work>
    </rdf:RDF>
  </metadata>
  <defs
     id="defs10" />
  <sodipodi:namedview
     pagecolor="#ffffff"
     bordercolor="#666666"
     borderopacity="1"
     objecttolerance="10"
     gridtolerance="10"
     guidetolerance="10"
     inkscape:pageopacity="0"
     inkscape:pageshadow="2"
     inkscape:window-width="1920"
     inkscape:window-height="1017"
     id="namedview8"
     showgrid="false"
     inkscape:zoom="0.63311878"
     inkscape:cx="404.93531"
     inkscape:cy="461.1351"
     inkscape:window-x="-8"
     inkscape:window-y="-8"
     inkscape:window-maximized="1"
     inkscape:current-layer="svg6"
     inkscape:document-rotation="0" />
  <g
     transform="matrix(0.1,0,0,-0.1,-16.139966,694.50774)"
     fill="#000000"
     stroke="none"
     id="g4">
    <path
       d="m 3531,6862 c -32,-233 -41,-308 -51,-438 -18,-254 -8,-458 32,-623 28,-119 44,-163 91,-256 54.8964,-116.8741 142.8653,-206.9469 203,-300 57.5235,-78.8505 113.2304,-154.7561 154,-245 27,-59 40,-91 53,-130 43,-129 69,-300 68,-440 -42.1699,-229.9153 -68.7009,-500.6971 -259,-634 -87,-61 -186,-89 -334,-94 -136,-4 -200,8 -263,51 -141,97 -220,325 -168,488 44,140 123,209 238,209 61.2204,25.0278 125.795,-36.4705 150,-60 11,0 13,13 9,68 -9,132 -48,214 -135,284 -107,84 -199,100 -559,97 -319,-3 -318,-3 -420,75 -24,19 -48,32 -52,30 -16,-10 -20,-98 -7,-153 23,-101 90,-183 192,-234 80,-41 81,-43 67,-129 -20,-123 -60,-277 -88,-336 -40,-83 -72,-139 -97,-171 -112,-144 -230,-195 -450,-195 -109,1 -142,4 -202,24 -66.4242,15.6704 -170.0289,90.3558 -209,143 -53.5174,69.552 -90.6802,154.0922 -114,237 -50.4323,305.4127 -25.7134,615.7934 99,880 115.1835,291.8212 372.2887,483.1892 439,785 6,28 16,75 23,105 6,30 14,140 17,244 4,189 -7,348 -44,621 -23,167 -24,175 -32,175 -4,0 -15,-21 -26,-48 -21,-56 -42,-105 -62,-149 -16,-36 -37,-85 -52,-123 -90.2733,-189.9011 -164.1807,-361.7509 -257,-509 -56.4949,-109.319 -143.1331,-204.916 -202,-296 -51.6874,-75.5901 -115.0828,-147.447 -155,-197 -14,-18 -44,-53 -66,-76 l -41,-44 -10,39 c -6,21 -11,44 -11,51 0,7 -6,34 -14,60 -77,259 -106,385 -106,463 0,55 28,192 45,219 3,5 1,11 -5,15 -5,3 -26,-10 -45,-30 -20,-19 -38,-35 -40,-35 -74.55872,-74.6298 -144.12048,-156.2841 -191,-250 -36.11495,-68.9013 -57.27635,-148.4521 -78,-218 -38,-128 -64,-297 -77,-507 -11,-165 -5,-436 12,-515 5,-25 13,-67 18,-95 12,-61 85,-283 110,-333 62,-123 47,-130 -38,-17 -110.76613,123.2378 -193.09169,290.4148 -260,448 -51,128 -110,389 -112,493 v 49 l -14,-30 c -24,-55 -39,-198 -43,-430 -4,-272 11,-407 75,-650 18,-70 79,-257 91,-282 5,-10 16,-34 25,-53 26,-60 87,-182 117,-237 34,-60 165,-255 201,-297 135,-162 248,-276 322,-326 40,-27 60,-58 30,-45 -10,4 -36,12 -58,17 -72.89577,20.3788 -148.4524,51.3265 -210,80 -119.56116,59.6541 -227.18508,140.4487 -310,223 -46,47 -86,81 -90,76 17.06809,-69.7712 51.37459,-135.974 76,-196 18,-44 46,-102 61,-128 15,-26 28,-50 28,-52 0,-20 188,-280 260,-358 44.35847,-59.0365 111.91151,-109.077 158,-155 114,-116 388,-290 577,-368 99,-40 161,-61 275,-89 143,-36 292,-77 298,-81 2,-1 -12,-31 -31,-66 -39,-72 -89,-214 -106,-304 -14,-77 -14,-221 0,-298 20,-105 65,-242 98,-297 16.5778,-50.63008 176.6733,-246.94912 188,-233 1,5 9,63 17,129 8,66 22,143 30,170 28,92 41,125 48,125 4,0 10,-17 13,-37 58.6626,-241.15797 110.859,-478.01549 194,-688 39,-101 134,-304 174,-369 l 24,-38 78,158 c 43,88 84,173 91,189 7,17 19,46 27,65 22,52 101,295 121,370 33.3874,91.72401 42.0535,197.0329 64,284 16,62 19,66 28,45 37,-82 64,-202 73,-324 l 6,-90 45,45 c 117,117 166,206 231,420 2.9405,164.687 44.0876,390.5289 -26,534 -23.7739,54.2823 -43.8029,110.4345 -75,161 -32,51 -27,55 55,55 140,0 454,78 580,144 59.2562,22.095 110.062,55.8613 160,81 182.0041,101.8239 391.3815,279.1279 521,440 56.2888,80.5465 128.7908,168.9404 169,250 11,22 22,42 25,45 3,3 15,28 28,55 13,28 27,58 33,67 27,50 109,307 109,341 0,15 -7,11 -30,-22 -81,-112 -207,-198 -357,-245 -50,-15 -153,-22 -153,-10 0,5 20,27 125,137 49.9762,58.3973 123.915,143.0716 162,202 37.1313,40.2878 61.4587,91.4749 88,132 61.8418,103.9105 122.7138,218.9737 173,333 65.1776,201.8073 143.4442,382.7621 158,580 2,30 8,89 15,130 15,101 5,512 -16,595 -8,33 -15,76 -15,95 -1,63 -20,8 -30,-87 -31.1527,-199.2628 -60.3796,-341.0167 -140,-515 -58.1269,-135.494 -151.8187,-325.8936 -250,-428 -16,-17 -30,-29 -30,-28 0,2 12,35 26,73 14,39 30,84 34,100 5,17 17,55 25,85 92,308 108,627 54,1035 -18,131 -26,181 -37,217 -6,18 -18,60 -28,93 -59.6412,155.1188 -175.4432,441.4832 -345,495 19.215,-79.8994 32.8435,-161.7787 33,-240 -1,-104 -5,-140 -27,-215 -27.59,-120.0948 -75.3741,-249.4177 -92,-357 -21.5226,-88.3787 -73.9404,25.7507 -108,67 -58.4191,66.1701 -114.5766,139.4369 -164,205 -36.4292,55.6329 -87.4769,109.6657 -120,163 -14,26 -27,47 -62,102 -47,73 -99,168 -170,315 -59.2419,118.9464 -117.1786,245.2022 -165,361 -50,120 -51,121 -64,157 -7,18 -16,34 -20,37 -4,2 -12,-35 -19,-83 z M 2958,4680 c 9,-5 28,-15 42,-20 14,-6 35,-17 48,-24 22,-13 21,-14 -39,-38 -34,-14 -70,-23 -80,-21 -27,7 -96,70 -102,93 -5,18 0,20 54,20 33,0 67,-4 77,-10 z"
       id="path2"
       sodipodi:nodetypes="ccccccsccccccccccccccccccccccccccscccccccccscsccccccccccccccccccccccccccccssccccccccccscsccccccccccccscccsccccsccsccscccccccccccscccccccccccccccccccccccccsc" />
  </g>
</svg>
